<svg width="1200" height="630" viewBox="0 0 1200 630" fill="none" xmlns="http://www.w3.org/2000/svg">
  <defs>
    <linearGradient id="bg" x1="0" y1="0" x2="1" y2="1">
      <stop offset="0%" stop-color="#0f172a" />
      <stop offset="50%" stop-color="#1f2937" />
      <stop offset="100%" stop-color="#111827" />
    </linearGradient>
    <linearGradient id="flame" x1="0" y1="0" x2="1" y2="1">
      <stop offset="0%" stop-color="#ff9b6a" />
      <stop offset="50%" stop-color="#ff7a3d" />
      <stop offset="100%" stop-color="#ffb347" />
    </linearGradient>
  </defs>
  <rect width="1200" height="630" fill="url(#bg)" />
  <circle cx="920" cy="320" r="220" fill="url(#flame)" fill-opacity="0.15" />
  <circle cx="920" cy="320" r="140" fill="url(#flame)" fill-opacity="0.25" />
  <path d="M900 200C930 230 940 270 932 306C962 288 996 286 1030 304C996 324 972 350 956 386C938 428 928 470 900 504C872 470 862 428 844 386C828 350 804 324 770 304C804 286 838 288 868 306C860 270 870 230 900 200Z" fill="url(#flame)" />
  <text x="120" y="260" font-family="Inter, sans-serif" font-size="64" fill="#ffffff" font-weight="600">Debug выгорания</text>
  <text x="120" y="340" font-family="Inter, sans-serif" font-size="32" fill="#f8fafc" opacity="0.8">50 историй IT-фениксов</text>
</svg>
