<svg xmlns="http://www.w3.org/2000/svg" width="120" height="120" viewBox="0 0 120 120" fill="none">
  <defs>
    <linearGradient id="phoenix" x1="0" y1="0" x2="1" y2="1">
      <stop offset="0%" stop-color="#fb923c" />
      <stop offset="100%" stop-color="#ef4444" />
    </linearGradient>
  </defs>
  <path d="M60 8C43 22 39 40 46 58C28 54 16 60 10 76C23 69 35 68 44 74C34 87 34 101 44 112C44 96 52 84 60 78C68 84 76 96 76 112C86 101 86 87 76 74C85 68 97 69 110 76C104 60 92 54 74 58C81 40 77 22 60 8Z" fill="url(#phoenix)"/>
</svg>
